<?xml version="1.0" standalone="no"?>
<!DOCTYPE svg PUBLIC "-//W3C//DTD SVG 20010904//EN"
 "http://www.w3.org/TR/2001/REC-SVG-20010904/DTD/svg10.dtd">
<svg version="1.0" xmlns="http://www.w3.org/2000/svg"
 width="50.000000pt" height="53.000000pt" viewBox="0 0 50.000000 53.000000"
 preserveAspectRatio="xMidYMid meet">

<g transform="translate(0.000000,53.000000) scale(0.100000,-0.100000)"
fill="#000000" stroke="none">
<path d="M140 499 c-55 -25 -86 -53 -111 -100 -15 -31 -18 -62 -20 -200 l-1
-164 25 -3 c20 -3 47 20 149 128 l125 132 49 -122 c27 -67 55 -125 63 -128 8
-3 22 5 33 17 15 20 18 41 18 138 0 136 -11 188 -53 238 -37 46 -157 104 -157
77 0 -5 18 -16 40 -26 35 -15 90 -70 90 -89 0 -4 -24 -7 -53 -7 l-52 0 -26 58
-25 57 -24 -57 -24 -58 -53 0 c-29 0 -53 3 -53 7 0 19 55 74 90 89 39 17 53
35 28 33 -7 0 -33 -9 -58 -20z m120 -96 c0 -7 -11 -13 -25 -13 -28 0 -30 8
-13 45 l12 26 13 -23 c7 -13 12 -29 13 -35z m80 -58 l-24 -26 -12 23 c-12 21
-10 23 19 28 43 8 45 4 17 -25z m78 -128 c3 -89 0 -138 -5 -132 -6 6 -29 57
-51 115 l-42 104 37 38 c25 26 40 35 47 28 6 -6 12 -74 14 -153z m-297 13
c-32 -77 -61 -143 -64 -147 -9 -8 -9 179 -1 241 l7 46 58 0 58 0 -58 -140z
m168 109 c10 -30 8 -33 -96 -145 -59 -63 -108 -112 -110 -111 -1 2 23 67 54
145 l58 142 41 0 c38 0 43 -3 53 -31z"/>
</g>
</svg>
